Coordinates
version=1
nRows=23
nColumns=23
inDegrees=yes

Units are S.I. units (second, meters, Newtons, ...)
If the header above contains a line with 'inDegrees', this indicates whether rotational values are in degrees (yes) or radians (no).

endheader
time	pelvis_tilt	pelvis_list	pelvis_rotation	pelvis_tx	pelvis_ty	pelvis_tz	hip_flexion_r	hip_adduction_r	hip_rotation_r	knee_angle_r	knee_angle_r_beta	ankle_angle_r	subtalar_angle_r	mtp_angle_r	hip_flexion_l	hip_adduction_l	hip_rotation_l	knee_angle_l	knee_angle_l_beta	ankle_angle_l	subtalar_angle_l	mtp_angle_l
     15.00000000	     -1.36552765	     -6.31464840	     -8.43094907	      2.34218826	      0.99613669	      0.99643583	      9.94360235	     11.74043470	      2.78450096	     39.22444419	      0.68459570	     25.36295430	      0.84620541	      0.00000000	     24.27768956	    -12.84184651	     -3.55474027	     93.45326638	      1.63106720	      1.34207230	     -8.29536432	      0.00000000
     15.00666667	     -1.27923605	     -6.10143820	     -7.93180848	      2.34319991	      1.00034046	      0.99587355	      7.75164420	     11.44040085	      3.22344833	     37.09780462	      0.64747884	     24.69522112	      0.22489910	      0.00000000	     25.20224412	    -12.44157180	     -3.11210050	     91.74860409	      1.60131523	      2.12019234	     -7.79649946	      0.00000000
     15.01333333	     -1.58955594	     -5.61942672	     -7.64440747	      2.34423354	      1.00425435	      0.99553357	      6.09866468	     10.91263221	      3.72488693	     35.14866133	      0.61345987	     23.96221067	     -0.06179166	      0.00000000	     26.40280656	    -11.82281964	     -2.96021110	     89.79281405	      1.56718025	      2.76611039	     -7.60367734	      0.00000000
     15.02000000	     -1.89523095	     -5.09607677	     -7.33405884	      2.34556455	      1.00850893	      0.99524161	      4.39858613	     10.34283574	      4.21094852	     33.07971608	      0.57734996	     22.92002794	     -0.46943733	      0.00000000	     27.44468756	    -11.14895621	     -2.89928592	     87.56475358	      1.52829326	      3.42550113	     -7.47432623	      0.00000000
     15.02666667	     -2.74515331	     -4.33404199	     -7.24774903	      2.34675911	      1.01214147	      0.99525603	      3.52985203	      9.53163420	      4.52312177	     31.43181316	      0.54858863	     22.01714093	     -0.04896530	      0.00000000	     28.95211683	    -10.35193554	     -3.11596991	     85.14415400	      1.48604583	      4.03448875	     -7.35945499	      0.00000000
     15.03333333	     -2.42278004	     -3.89687481	     -6.65230315	      2.34904609	      1.01783411	      0.99461499	      0.92750538	      8.92245440	      4.70502563	     28.82362550	      0.50306717	     19.93550900	     -0.99305177	      0.00000000	     28.97329794	     -9.55002182	     -3.03030181	     82.31263217	      1.43662645	      4.50706631	     -7.65938093	      0.00000000
     15.04000000	     -2.70662632	     -3.24248122	     -6.28845485	      2.35112622	      1.02270986	      0.99431008	     -0.74962569	      8.13203767	      4.73107469	     26.68004650	      0.46565466	     17.94458317	     -1.27797566	      0.00000000	     29.54442323	     -8.66957798	     -3.18771297	     79.32798874	      1.38453459	      4.95804452	     -7.97152742	      0.00000000
     15.04666667	     -2.98768106	     -2.57550020	     -5.95940816	      2.35336589	      1.02767349	      0.99406472	     -2.37008138	      7.32252127	      4.65858500	     24.60105357	      0.42936938	     15.70634978	     -1.50756576	      0.00000000	     29.96523416	     -7.79772571	     -3.44738686	     76.12454179	      1.32862390	      5.36532741	     -8.28900773	      0.00000000
     15.05333333	     -3.32860755	     -1.85383011	     -5.59315610	      2.35572315	      1.03252736	      0.99373666	     -3.81100012	      6.41086226	      4.19201774	     22.67745325	      0.39579623	     13.30156748	     -1.49532003	      0.00000000	     30.34310475	     -6.83843031	     -3.73151480	     72.72058261	      1.26921360	      5.71700455	     -8.66273311	      0.00000000
     15.06000000	     -3.58048872	     -1.18903823	     -5.31237425	      2.35811722	      1.03751185	      0.99354686	     -5.30225399	      5.57346034	      3.77274290	     20.78511117	      0.36276863	     10.59261162	     -1.56416006	      0.00000000	     30.48075271	     -5.98589005	     -4.12847756	     69.11566791	      1.20629597	      6.01025244	     -9.01040568	      0.00000000
     15.06666667	     -3.88052236	     -0.54732754	     -5.08065647	      2.36052240	      1.04235665	      0.99340935	     -6.63506084	      4.77301595	      3.29318719	     19.05060451	      0.33249577	      7.70946989	     -1.67018598	      0.00000000	     30.55642983	     -5.20292353	     -4.61960069	     65.34458280	      1.14047812	      6.27269361	     -9.24073524	      0.00000000
     15.07333333	     -4.23420284	      0.02304825	     -4.90716217	      2.36285046	      1.04698908	      0.99334496	     -7.79234289	      4.05612422	      2.77138594	     17.48857491	      0.30523321	      4.69525919	     -1.82131701	      0.00000000	     30.60078729	     -4.54417068	     -5.19758100	     61.44941347	      1.07249459	      6.51918667	     -9.32371472	      0.00000000
     15.08000000	     -4.59214089	      0.57363418	     -4.71975103	      2.36512844	      1.05148546	      0.99314172	     -8.81448193	      3.37003529	      2.17939553	     16.13195847	      0.28155579	      1.67632160	     -1.91051028	      0.00000000	     30.55828420	     -3.83889221	     -5.72814487	     57.39938879	      1.00180832	      6.77487009	     -9.16061577	      0.00000000
     15.08666667	     -4.99891529	      1.02488951	     -4.58480711	      2.36728348	      1.05571921	      0.99299077	     -9.65504032	      2.79700508	      1.59466472	     14.98647641	      0.26156336	     -1.33905454	     -2.09569305	      0.00000000	     30.49507526	     -3.27663843	     -6.32902700	     53.27405668	      0.92980770	      7.03332326	     -8.76777933	      0.00000000
     15.09333333	     -5.36664668	      1.36721324	     -4.45281140	      2.36935146	      1.05974285	      0.99271364	    -10.45628627	      2.36859436	      1.21050726	     13.97084109	      0.24383718	     -4.42009925	     -2.57036959	      0.00000000	     30.32854987	     -2.79599606	     -6.91709505	     49.09334891	      0.85684058	      7.27467457	     -8.10436509	      0.00000000
     15.10000000	     -5.79615444	      1.63500086	     -4.31175127	      2.37127325	      1.06339261	      0.99232315	    -11.01996400	      2.01899789	      0.75413451	     13.27786913	      0.23174253	     -7.21702599	     -2.98703650	      0.00000000	     30.18890436	     -2.33385268	     -7.42127032	     44.89591096	      0.78358147	      7.58045583	     -7.13357588	      0.00000000
     15.10666667	     -6.22191083	      1.81771169	     -4.15352054	      2.37309688	      1.06670758	      0.99179233	    -11.46020562	      1.76332041	      0.30875255	     12.83787629	      0.22406321	     -9.82181006	     -3.44766789	      0.00000000	     30.00912783	     -1.90034986	     -7.83324881	     40.71122097	      0.71054485	      7.90103014	     -5.94387131	      0.00000000
     15.11333333	     -6.96066067	      1.90857723	     -3.97557290	      2.37472704	      1.06915933	      0.99112299	    -11.31468704	      1.59083389	     -0.37287475	     12.90567821	      0.22524658	    -11.98191861	     -3.56611293	      0.00000000	     30.18962058	     -1.49607701	     -8.01861841	     36.66914955	      0.63999739	      8.29025891	     -4.65265751	      0.00000000
     15.12000000	     -7.13734621	      2.00059347	     -3.79188959	      2.37637408	      1.07194040	      0.99033797	    -11.77950943	      1.42626317	     -0.72617955	     12.96391318	      0.22626297	    -14.10977292	     -4.27075962	      0.00000000	     29.68411136	     -0.97643287	     -8.06560126	     32.59155913	      0.56883002	      8.57320085	     -3.24759725	      0.00000000
     15.12666667	     -7.71013979	      1.97886989	     -3.57660662	      2.37775104	      1.07364542	      0.98942853	    -11.53876297	      1.35915910	     -1.36898347	     13.61148179	      0.23756517	    -15.79894641	     -4.61346948	      0.00000000	     29.68468274	     -0.54631643	     -7.82984579	     28.82198547	      0.50303854	      9.02275125	     -1.79593789	      0.00000000
     15.13333333	     -8.05827501	      2.01870325	     -3.40787848	      2.37902205	      1.07517824	      0.98857341	    -11.37820908	      1.18512276	     -2.02884629	     14.57729584	      0.25442181	    -17.28276936	     -5.03781610	      0.00000000	     29.39139869	     -0.01701471	     -7.42993549	     25.11602194	      0.43835728	      9.35701696	     -0.45984759	      0.00000000
     15.14000000	     -8.28187375	      2.12515944	     -3.27858826	      2.38020778	      1.07641835	      0.98773296	    -11.19258777	      0.88534464	     -2.78519761	     15.87831366	      0.27712885	    -18.43000683	     -5.13942743	      0.00000000	     28.83393650	      0.68365648	     -6.44295688	     21.32476021	      0.37218728	      9.41497261	     -0.18627083	      0.00000000
     15.14666667	     -8.59974135	      2.23993446	     -3.11962177	      2.38118409	      1.07694643	      0.98688794	    -10.69852310	      0.51311410	     -3.78483729	     17.62005723	      0.30752801	    -19.40674961	     -5.13490178	      0.00000000	     28.38147717	      1.38628183	     -5.08954099	     17.77891241	      0.31030056	      9.43434955	     -0.22674702	      0.00000000
